PathFileType	4	(X/Y/Z)	/Users/itak/Documents/Research/Walk-IL/dataset/trc/00171_00008.trc
DataRate	CameraRate	NumFrames	NumMarkers	Units	OrigDataRate	OrigDataStartFrame	OrigNumFrames
100.000000	100.000000	4	53	mm	100.000000	67	539
Frame#	Time	RPSI			LPSI			L3			STRN			T10			C7			CLAV			RBAK			LBAK			LSHO			LUPA			LAEL			LAOL			LWTS			LWPS			LFRA			LIFD			LHPS			LHTS			RSHO			RUPA			RAEL			RAOL			RWTS			RWPS			RFRA			RIFD			RHTS			RHPS			RBHD			LFHD			RFHD			LBHD			LHIP			RHIP			RASI			LASI			LKNE			LTHI			LANK			LTIP			LTOE			LMT1			LMT5			LHEE			RKNE			RTHI			RANK			RTIP			RTOE			RMT1			RMT5			RHEE			
		X1	Y1	Z1	X2	Y2	Z2	X3	Y3	Z3	X4	Y4	Z4	X5	Y5	Z5	X6	Y6	Z6	X7	Y7	Z7	X8	Y8	Z8	X9	Y9	Z9	X10	Y10	Z10	X11	Y11	Z11	X12	Y12	Z12	X13	Y13	Z13	X14	Y14	Z14	X15	Y15	Z15	X16	Y16	Z16	X17	Y17	Z17	X18	Y18	Z18	X19	Y19	Z19	X20	Y20	Z20	X21	Y21	Z21	X22	Y22	Z22	X23	Y23	Z23	X24	Y24	Z24	X25	Y25	Z25	X26	Y26	Z26	X27	Y27	Z27	X28	Y28	Z28	X29	Y29	Z29	X30	Y30	Z30	X31	Y31	Z31	X32	Y32	Z32	X33	Y33	Z33	X34	Y34	Z34	X35	Y35	Z35	X36	Y36	Z36	X37	Y37	Z37	X38	Y38	Z38	X39	Y39	Z39	X40	Y40	Z40	X41	Y41	Z41	X42	Y42	Z42	X43	Y43	Z43	X44	Y44	Z44	X45	Y45	Z45	X46	Y46	Z46	X47	Y47	Z47	X48	Y48	Z48	X49	Y49	Z49	X50	Y50	Z50	X51	Y51	Z51	X52	Y52	Z52	X53	Y53	Z53	

68	0.67	752.4025268554688	1069.55810546875	327.1907653808594	730.2474365234375	1076.337036132812	207.3287353515625	746.1699829101562	1111.916137695312	270.1699523925781	1026.883666992188	1291.954711914062	217.1644439697266	733.7098999023438	1275.621215820312	275.5168151855469	827.320556640625	1536.02392578125	254.8893127441406	1010.116149902344	1408.232666015625	215.8117370605469	764.7311401367188	1365.90087890625	372.9349365234375	797.568603515625	1515.6943359375	157.2616271972656	855.2588500976562	1496.81982421875	65.07408905029297	797.76318359375	1369.921142578125	-1.734682321548462	793.51513671875	1152.1025390625	-26.5427303314209	763.9319458007812	1135.634643554688	55.01779174804688	917.2351684570312	925.2205200195312	-21.25367736816406	830.4818725585938	899.3444213867188	-45.6475830078125	807.0864868164062	1041.016723632812	-44.73005294799805	948.0119018554688	744.572998046875	-3.171530961990356	857.00927734375	831.0802001953125	-47.00508880615234	928.6470947265625	848.2766723632812	-44.77082061767578	925.057861328125	1499.581665039062	418.7066345214844	913.453857421875	1432.9873046875	490.1259460449219	885.8383178710938	1144.736083984375	545.1363525390625	857.0059814453125	1139.833862304688	453.4429931640625	1004.551635742188	914.3302612304688	480.998779296875	944.9827880859375	897.217529296875	544.56005859375	911.2210083007812	1069.946166992188	553.3563842773438	1004.727722167969	729.8230590820312	444.8104553222656	1029.05322265625	820.0117797851562	478.3836059570312	968.72412109375	813.9407958984375	530.8724975585938	908.8739013671875	1686.622436523438	316.068115234375	1050.042358398438	1722.307006835938	154.0845184326172	1075.602294921875	1720.899169921875	280.8811950683594	873.4783325195312	1696.402099609375	183.2295989990234	806.8350830078125	1008.778686523438	67.44137573242188	921.4234008789062	1009.275634765625	420.8790893554688	991.8756103515625	1032.49658203125	352.7950439453125	937.2764892578125	1040.209350585938	98.62691497802734	945.5721435546875	513.7409057617188	37.95383834838867	905.5407104492188	656.96044921875	31.18610763549805	759.734375	67.07264709472656	38.67488098144531	852.8265991210938	296.1534118652344	26.32194328308105	976.122314453125	64.65341186523438	34.78869247436523	934.9234008789062	64.43727111816406	88.07205200195312	861.72998046875	50.91955947875977	-12.2445650100708	719.2465209960938	73.31398773193359	114.6586685180664	966.9563598632812	512.227294921875	356.4651794433594	982.7601928710938	781.0679931640625	402.1430969238281	850.3751831054688	40.60722351074219	339.4670104980469	974.9640502929688	389.4685668945312	330.9966735839844	1074.926635742188	38.06867980957031	313.8246459960938	1019.96826171875	32.70376968383789	264.509765625	961.394775390625	37.82753753662109	376.1533508300781	800.1294555664062	38.00806427001953	271.7302551269531	
69	0.68	750.5249633789062	1069.54345703125	327.2459716796875	728.2410888671875	1076.377197265625	207.4089202880859	744.1442260742188	1111.900390625	270.2934265136719	1024.290649414062	1292.717407226562	216.9335174560547	731.2803344726562	1275.482666015625	275.7969665527344	824.0575561523438	1536.166870117188	254.9878540039062	1007.181579589844	1408.94091796875	215.5621032714844	762.2022094726562	1365.850952148438	373.1766662597656	794.1619262695312	1515.775146484375	157.5279541015625	851.66650390625	1497.109985351562	65.17201995849609	794.0469360351562	1370.116577148438	-1.41813850402832	789.7962646484375	1152.32861328125	-26.04088973999023	760.7120361328125	1135.896484375	55.74085235595703	913.1766967773438	925.220947265625	-21.45864105224609	826.232666015625	899.5365600585938	-45.35552978515625	803.1240844726562	1041.237060546875	-44.29001235961914	943.6478881835938	744.488525390625	-3.496744394302368	852.6063842773438	831.2022705078125	-46.83426666259766	924.2894897460938	848.233642578125	-45.00569152832031	922.110595703125	1500.040893554688	418.6140747070312	910.9464721679688	1433.401000976562	490.1056213378906	884.4585571289062	1145.087646484375	545.082763671875	855.33837890625	1140.136596679688	453.4255065917969	1003.419555664062	914.856689453125	480.9439697265625	944.1280517578125	897.74560546875	544.7360229492188	909.9497680664062	1070.415283203125	553.306884765625	1003.960876464844	730.34765625	445.0758361816406	1028.161254882812	820.634521484375	478.4271240234375	967.9887084960938	814.4821166992188	531.1096801757812	905.721435546875	1687.106689453125	316.0801391601562	1046.71044921875	1722.729858398438	153.9515686035156	1072.41796875	1721.337646484375	280.7071228027344	870.1722412109375	1696.89697265625	183.2668304443359	804.9563598632812	1009.077270507812	67.39345550537109	919.7459106445312	1009.39453125	420.8925170898438	990.1071166992188	1032.876953125	352.8445129394531	935.2813110351562	1040.723754882812	98.68796539306641	944.244873046875	514.0576782226562	37.0918083190918	904.3836669921875	657.5234375	31.10113525390625	746.2257080078125	72.62010192871094	41.14276504516602	845.4450073242188	298.876708984375	27.14437294006348	962.2826538085938	64.84893798828125	33.97750473022461	921.972900390625	65.54376983642578	87.92929840087891	846.9161376953125	53.85159301757812	-11.20676517486572	707.0606079101562	79.96698760986328	117.662109375	965.8793334960938	512.4518432617188	356.3351440429688	981.1793823242188	781.26416015625	402.093505859375	850.4808349609375	40.66977310180664	339.4481201171875	974.2155151367188	389.75927734375	330.83251953125	1074.998168945312	38.08476638793945	313.7492980957031	1019.990356445312	32.62798690795898	264.4137878417969	961.4833984375	37.89310836791992	376.0297241210938	800.2710571289062	38.00533676147461	271.7770385742188	
70	0.6900000000000001	748.61962890625	1069.513671875	327.1851501464844	726.2314453125	1076.38037109375	207.3736419677734	742.111083984375	1111.857177734375	270.2968444824219	1021.648559570312	1293.521850585938	216.7160949707031	728.7442016601562	1275.278564453125	275.9156494140625	820.6390991210938	1536.282470703125	255.0024566650391	1004.148498535156	1409.675170898438	215.3313903808594	759.5067138671875	1365.738403320312	373.2856140136719	790.64892578125	1515.823974609375	157.7018585205078	848.0294799804688	1497.382080078125	65.20424652099609	790.3379516601562	1370.2958984375	-1.19789445400238	786.0856323242188	1152.530029296875	-25.63474273681641	757.4932250976562	1136.142456054688	56.35373306274414	909.0889282226562	925.1766967773438	-21.71193313598633	821.9598999023438	899.711181640625	-45.14245223999023	799.1647338867188	1041.438720703125	-43.94176483154297	939.184326171875	744.34814453125	-3.836604595184326	848.152099609375	831.2875366210938	-46.72659301757812	919.8878173828125	848.1387329101562	-45.28598403930664	918.9214477539062	1500.496948242188	418.4962768554688	908.1483154296875	1433.814208984375	490.0464782714844	882.8042602539062	1145.429931640625	544.9598999023438	853.513427734375	1140.435546875	453.3107604980469	1002.189025878906	915.4612426757812	480.8715515136719	943.1235961914062	898.2853393554688	544.8360595703125	908.4027099609375	1070.873291015625	553.1951293945312	1003.320861816406	730.9907836914062	445.2533569335938	1027.271240234375	821.3839111328125	478.4545288085938	967.1965942382812	815.0593872070312	531.2597045898438	902.3627319335938	1687.619995117188	316.0166931152344	1043.097045898438	1723.17822265625	153.6990356445312	1068.99658203125	1721.8798828125	280.4039001464844	866.6155395507812	1697.346313476562	183.2324676513672	803.0653076171875	1009.293334960938	67.25203704833984	917.9929809570312	1009.543640136719	420.8339538574219	988.3255615234375	1033.270263671875	352.83447265625	933.3106079101562	1041.169677734375	98.67367553710938	942.7100830078125	514.284912109375	36.17681503295898	903.138427734375	657.997314453125	30.93518257141113	731.9056396484375	78.78519439697266	43.81694030761719	837.6124267578125	301.8654479980469	28.02952194213867	947.41845703125	64.94884490966797	33.50507354736328	907.9743041992188	66.70979309082031	88.08143615722656	831.1416015625	57.04428482055664	-9.857883453369141	694.0838012695312	87.44636535644531	120.8217239379883	964.66552734375	512.6998291015625	356.2425231933594	979.5669555664062	781.4823608398438	402.0272521972656	850.5740966796875	40.72090530395508	339.4415588378906	973.37109375	390.0733947753906	330.7060852050781	1075.059936523438	38.10699844360352	313.6751403808594	1020.016235351562	32.59891510009766	264.3247680664062	961.567138671875	37.94272613525391	375.9199523925781	800.3868408203125	38.00100326538086	271.8307800292969	
71	0.7000000000000001	746.6852416992188	1069.468383789062	327.0185546875	724.2145385742188	1076.348999023438	207.2324981689453	740.069091796875	1111.787841796875	270.1872863769531	1018.960754394531	1294.350341796875	216.5049896240234	726.110107421875	1275.0107421875	275.8817749023438	817.0842895507812	1536.366943359375	254.9339294433594	1001.025329589844	1410.418090820312	215.1172943115234	756.647216796875	1365.560913085938	373.2630920410156	787.044189453125	1515.833740234375	157.7832183837891	844.3634643554688	1497.625	65.16709899902344	786.6528930664062	1370.4462890625	-1.076167941093445	782.3880004882812	1152.696533203125	-25.33069229125977	754.2761840820312	1136.358764648438	56.84922790527344	904.977294921875	925.0801391601562	-22.01405906677246	817.672607421875	899.856689453125	-45.0108642578125	795.21044921875	1041.611694335938	-43.69078063964844	934.6373291015625	744.1491088867188	-4.196838855743408	843.6589965820312	831.3264770507812	-46.68512725830078	915.4485473632812	847.9854736328125	-45.60990142822266	915.5072021484375	1500.93359375	418.354736328125	905.0701904296875	1434.210693359375	489.9492797851562	880.8626708984375	1145.74853515625	544.783935546875	851.5256958007812	1140.702880859375	453.1220703125	1000.860534667969	916.1397705078125	480.7808532714844	941.9633178710938	898.8206787109375	544.8525390625	906.60888671875	1071.300537109375	553.038818359375	1002.826293945312	731.7543334960938	445.3225708007812	1026.390747070312	822.2613525390625	478.4576110839844	966.354248046875	815.6614379882812	531.3089599609375	898.7958984375	1688.1455078125	315.8794250488281	1039.199340820312	1723.661743164062	153.3290252685547	1065.33203125	1722.532470703125	279.9727783203125	862.8069458007812	1697.7314453125	183.1299133300781	801.1486206054688	1009.441101074219	67.02241516113281	916.1619873046875	1009.720458984375	420.6972351074219	986.526611328125	1033.66552734375	352.7477722167969	931.343017578125	1041.54345703125	98.573486328125	940.9234008789062	514.4173583984375	35.21139144897461	901.7583618164062	658.3754272460938	30.67557525634766	716.9334106445312	85.54285430908203	46.64959716796875	829.3844604492188	305.1010437011719	28.95003890991211	931.644287109375	65.00968933105469	33.37121963500977	893.0392456054688	67.96961975097656	88.52065277099609	814.5629272460938	60.52884674072266	-8.225250244140625	680.4775390625	95.70428466796875	124.0889282226562	963.3361206054688	512.9696044921875	356.1729736328125	977.9262084960938	781.716552734375	401.9303894042969	850.6564331054688	40.76335525512695	339.4452514648438	972.4426879882812	390.4132690429688	330.6026306152344	1075.111083984375	38.13367080688477	313.60302734375	1020.051208496094	32.62569046020508	264.238525390625	961.6444702148438	37.97870635986328	375.8254699707031	800.4744873046875	37.99607849121094	271.8880004882812	
